<?xml version="1.0" encoding="utf-8"?>
<!-- Generator: Adobe Illustrator 15.1.0, SVG Export Plug-In . SVG Version: 6.00 Build 0)  -->
<!DOCTYPE svg PUBLIC "-//W3C//DTD SVG 1.1//EN" "http://www.w3.org/Graphics/SVG/1.1/DTD/svg11.dtd">
<svg version="1.1" id="Layer_1" xmlns="http://www.w3.org/2000/svg" xmlns:xlink="http://www.w3.org/1999/xlink" x="0px" y="0px"
	 width="300px" height="103.804px" viewBox="0 0 300 103.804" enable-background="new 0 0 300 103.804" xml:space="preserve">
<g>
	<g>
		<path fill="#FFFFFF" d="M22.912,0.094V37.96H62.85V0.094h21.696v98.671H62.85V56.203H22.912v42.563H1.214V0.094H22.912z"/>
		<rect x="97.451" y="32.373" fill="#FFFFFF" width="19.625" height="66.393"/>
		<path fill="#FFFFFF" d="M150.325,0.094v52.93l24.739-25.705h23.217l-26.947,26.257l29.989,45.189h-23.771l-19.625-31.922
			l-7.602,7.326v24.597h-19.621V0.094H150.325z"/>
		<path fill="#FFFFFF" d="M223.708,81.629c2.947,2.858,7.186,4.285,12.714,4.285c3.961,0,7.37-0.99,10.227-2.972
			c2.854-1.981,4.607-4.076,5.249-6.287h17.276c-2.764,8.567-7.002,14.694-12.712,18.38c-5.715,3.684-12.624,5.526-20.729,5.526
			c-5.622,0-10.688-0.898-15.202-2.695c-4.516-1.795-8.341-4.353-11.473-7.668c-3.13-3.316-5.55-7.277-7.255-11.885
			c-1.704-4.606-2.555-9.675-2.555-15.201c0-5.342,0.873-10.318,2.623-14.927c1.752-4.604,4.238-8.589,7.466-11.955
			c3.221-3.361,7.068-6.009,11.538-7.945c4.469-1.935,9.419-2.903,14.857-2.903c6.078,0,11.376,1.175,15.89,3.525
			c4.514,2.348,8.223,5.506,11.127,9.465c2.902,3.962,4.996,8.477,6.286,13.544c1.291,5.068,1.752,10.364,1.384,15.892h-51.548
			C219.146,74.168,220.758,78.774,223.708,81.629z M245.89,44.042c-2.351-2.58-5.922-3.871-10.712-3.871
			c-3.134,0-5.737,0.532-7.809,1.59c-2.072,1.059-3.731,2.373-4.975,3.939c-1.242,1.566-2.12,3.224-2.626,4.975
			c-0.508,1.752-0.807,3.319-0.897,4.699h31.923C249.872,50.398,248.237,46.621,245.89,44.042z"/>
		<circle fill="#FFFFFF" cx="107.262" cy="7.722" r="10.969"/>
		<path fill="#FFFFFF" d="M277.96,88.124c0,6.061,4.914,10.97,10.973,10.97c6.057,0,10.965-4.909,10.965-10.97
			c0-6.056-4.908-10.969-10.965-10.969C282.874,77.155,277.96,82.068,277.96,88.124z"/>
	</g>
</g>
</svg>
