<?xml version="1.0" encoding="utf-8"?>
<!-- Generator: Adobe Illustrator 18.0.0, SVG Export Plug-In . SVG Version: 6.00 Build 0)  -->
<!DOCTYPE svg PUBLIC "-//W3C//DTD SVG 1.1//EN" "http://www.w3.org/Graphics/SVG/1.1/DTD/svg11.dtd">
<svg version="1.1" id="Layer_1" xmlns="http://www.w3.org/2000/svg" xmlns:xlink="http://www.w3.org/1999/xlink" x="0px" y="0px"
	 viewBox="0 0 1024 429" style="enable-background:new 0 0 1024 429;" xml:space="preserve">
<style type="text/css">
	.st0{fill:none;}
	.st1{fill:#FF3E3E;}
	.st2{opacity:0.2;fill:#A63E3E;}
	.st3{opacity:0.2;}
	.st4{fill:#A63E3E;}
	.st5{fill:url(#SVGID_1_);}
</style>
<pattern  x="411.1" y="114.5" width="1200" height="1200" patternUnits="userSpaceOnUse" id="New_Pattern_Swatch_2" viewBox="0 -1200 1200 1200" style="overflow:visible;">
	<g>
		<polygon class="st0" points="0,-1200 1200,-1200 1200,0 0,0 		"/>
		<polygon class="st1" points="600,-600 0,-600 0,-1200 600,-1200 		"/>
		<polygon class="st2" points="547.8,-674.2 513.3,-674.2 513.3,-708.8 521.3,-708.8 521.3,-682.2 547.8,-682.2 		"/>
		<polygon class="st2" points="275.6,-908.7 300,-933.1 324.4,-908.7 318.8,-903 300,-921.8 281.2,-903 		"/>
		<path class="st2" d="M481.9-882.1l-6.6-4.5c5.7-8.4,15.1-13.4,25.2-13.4c10,0,19.4,4.9,25.1,13.2l-6.6,4.5
			c-4.2-6.1-11.1-9.7-18.5-9.7C493.1-892,486.1-888.3,481.9-882.1z"/>
		<polygon class="st2" points="405.9,-716.4 394,-728.4 405.9,-740.3 417.9,-728.4 		"/>
		<polygon class="st2" points="47.7,-744.3 61.8,-768.8 76,-744.3 		"/>
		<path class="st2" d="M132.1-1012.8c-1.9-10,1.2-20.2,8.4-27.3c7.1-7.1,17.2-10.2,27.1-8.4l-1.5,7.9c-7.3-1.3-14.7,1-20,6.2
			c-5.3,5.3-7.6,12.8-6.2,20.2L132.1-1012.8z"/>
		<polygon class="st2" points="76,-1147.7 34.4,-1147.7 34.4,-1155.7 76,-1155.7 		"/>
		<polygon class="st2" points="314.2,-1118.6 300,-1094.1 285.8,-1118.6 		"/>
		<g class="st3">
			<path class="st4" d="M426.1-1072.8l-5.7-5.7l12.2-12.2c4.9-4.9,12.9-4.9,17.8,0l5.6,5.6c1.8,1.8,4.7,1.8,6.5,0l6.1-6.1
				c4.9-4.9,12.9-4.9,17.8,0l5.6,5.6c0.9,0.9,2,1.3,3.2,1.3c1.2,0,2.4-0.5,3.2-1.3l12.2-12.2l5.7,5.7l-12.2,12.2
				c-2.4,2.4-5.5,3.7-8.9,3.7s-6.5-1.3-8.9-3.7l-5.6-5.6c-1.8-1.8-4.7-1.8-6.5,0l-6.1,6.1c-4.9,4.9-12.9,4.9-17.8,0l-5.6-5.6
				c-0.9-0.9-2-1.3-3.2-1.3c-1.2,0-2.4,0.5-3.2,1.3L426.1-1072.8z"/>
		</g>
		<g class="st3">
			<path class="st4" d="M196.3-782.3l-5.7-5.7l12.2-12.2c4.9-4.9,12.9-4.9,17.8,0l5.6,5.6c0.9,0.9,2,1.3,3.3,1.3
				c1.2,0,2.4-0.5,3.2-1.3l12.2-12.2l5.7,5.7l-12.2,12.2c-2.4,2.4-5.5,3.7-8.9,3.7c-3.4,0-6.5-1.3-8.9-3.7l-5.6-5.6
				c-1.8-1.8-4.7-1.8-6.5,0L196.3-782.3z"/>
		</g>
		<path class="st2" d="M220.6-674.2c0,5.4-4.4,9.7-9.7,9.7c-5.4,0-9.7-4.4-9.7-9.7c0-5.4,4.4-9.7,9.7-9.7
			C216.2-684,220.6-679.6,220.6-674.2z"/>
		<path class="st2" d="M102.3-923.3c0,5.4-4.4,9.7-9.7,9.7c-5.4,0-9.7-4.4-9.7-9.7s4.4-9.7,9.7-9.7
			C98-933.1,102.3-928.7,102.3-923.3z"/>
		<polygon class="st1" points="600,-1200 1200,-1200 1200,-600 600,-600 		"/>
		<polygon class="st2" points="1096,-1133.3 1130.5,-1133.3 1130.5,-1098.8 1122.5,-1098.8 1122.5,-1125.3 1096,-1125.3 		"/>
		<path class="st2" d="M720.9-1144.5l6.6,4.5c-5.7,8.4-15.1,13.4-25.2,13.4c-10,0-19.4-4.9-25.1-13.2l6.6-4.5
			c4.2,6.1,11.1,9.7,18.5,9.7C709.7-1134.6,716.7-1138.3,720.9-1144.5z"/>
		<polygon class="st2" points="767.8,-1042.9 779.8,-1030.9 767.8,-1019 755.8,-1030.9 		"/>
		<polygon class="st2" points="1107.4,-975.7 1119.4,-963.7 1107.4,-951.8 1095.4,-963.7 		"/>
		<polygon class="st2" points="665.2,-901.4 679.4,-925.9 693.5,-901.4 		"/>
		<path class="st2" d="M1124.8-774.7c1.9,10-1.2,20.2-8.4,27.3c-7.1,7.1-17.2,10.2-27.1,8.4l1.5-7.9c7.3,1.3,14.7-1,20-6.2
			c5.3-5.3,7.6-12.8,6.2-20.2L1124.8-774.7z"/>
		<polygon class="st2" points="1124,-652.3 1165.6,-652.3 1165.6,-644.3 1124,-644.3 		"/>
		<polygon class="st2" points="918.2,-1033.6 918.2,-992 910.2,-992 910.2,-1033.6 		"/>
		<polygon class="st2" points="924.4,-681.4 938.6,-705.9 952.7,-681.4 		"/>
		<g class="st3">
			<path class="st4" d="M769.6-690.7l5.7,5.7l-12.2,12.2c-4.9,4.9-12.9,4.9-17.8,0l-5.6-5.6c-1.8-1.8-4.7-1.8-6.5,0l-6.1,6.1
				c-4.9,4.9-12.9,4.9-17.8,0l-5.6-5.6c-0.9-0.9-2-1.3-3.2-1.3c-1.2,0-2.4,0.5-3.2,1.3L685-665.9l-5.7-5.7l12.2-12.2
				c2.4-2.4,5.5-3.7,8.9-3.7s6.5,1.3,8.9,3.7l5.6,5.6c1.8,1.8,4.7,1.8,6.5,0l6.1-6.1c4.9-4.9,12.9-4.9,17.8,0l5.6,5.6
				c0.9,0.9,2,1.3,3.2,1.3c1.2,0,2.4-0.5,3.2-1.3L769.6-690.7z"/>
		</g>
		<g class="st3">
			<path class="st4" d="M814.1-811l5.7,5.7l-12.2,12.2c-4.9,4.9-12.9,4.9-17.8,0l-5.6-5.6c-0.9-0.9-2-1.3-3.3-1.3
				c-1.2,0-2.4,0.5-3.2,1.3l-12.2,12.2l-5.7-5.7l12.2-12.2c2.4-2.4,5.5-3.7,8.9-3.7s6.5,1.3,8.9,3.7l5.6,5.6c1.8,1.8,4.7,1.8,6.5,0
				L814.1-811z"/>
		</g>
		<path class="st2" d="M943-1126.6c0-5.4,4.4-9.7,9.7-9.7s9.7,4.4,9.7,9.7c0,5.4-4.4,9.7-9.7,9.7S943-1121.2,943-1126.6z"/>
		<path class="st2" d="M996.2-835.3c0-5.4,4.4-9.7,9.7-9.7c5.4,0,9.7,4.4,9.7,9.7c0,5.4-4.4,9.7-9.7,9.7
			C1000.6-825.5,996.2-829.9,996.2-835.3z"/>
		<polygon class="st1" points="600,-600 0,-600 0,0 600,0 		"/>
		<polygon class="st2" points="335.8,-518.2 370.3,-518.2 370.3,-552.8 362.3,-552.8 362.3,-526.2 335.8,-526.2 		"/>
		<path class="st2" d="M516.7-407.4l4.5,6.6c8.4-5.7,13.4-15.1,13.4-25.2c0-10-4.9-19.4-13.2-25.1l-4.5,6.6
			c6.1,4.2,9.7,11.1,9.7,18.5C526.6-418.5,522.9-411.6,516.7-407.4z"/>
		<polygon class="st2" points="487.3,-202.9 475.3,-190.9 487.3,-178.9 499.2,-190.9 		"/>
		<polygon class="st2" points="164.5,-420.7 178.7,-396.2 192.8,-420.7 		"/>
		<path class="st2" d="M65.4-86.7c-1.9,10,1.2,20.2,8.4,27.3c7.1,7.1,17.2,10.2,27.1,8.4l-1.5-7.9c-7.3,1.3-14.8-1-20-6.2
			c-5.3-5.3-7.6-12.8-6.2-20.2L65.4-86.7z"/>
		<polygon class="st2" points="205.1,-190.9 205.1,-232.5 197.1,-232.5 197.1,-190.9 		"/>
		<polygon class="st2" points="314.2,-64.7 300,-89.2 285.8,-64.7 		"/>
		<g class="st3">
			<path class="st4" d="M310.8-312.4l-5.7,5.7l12.2,12.2c4.9,4.9,12.9,4.9,17.8,0l5.6-5.6c1.8-1.8,4.7-1.8,6.5,0l6.1,6.1
				c4.9,4.9,12.9,4.9,17.8,0l5.6-5.6c0.9-0.9,2-1.3,3.2-1.3c1.2,0,2.4,0.5,3.2,1.3l12.2,12.2l5.7-5.7l-12.2-12.2
				c-2.4-2.4-5.5-3.7-8.9-3.7s-6.5,1.3-8.9,3.7l-5.6,5.6c-1.8,1.8-4.7,1.8-6.5,0l-6.1-6.1c-4.9-4.9-12.9-4.9-17.8,0l-5.6,5.6
				c-0.9,0.9-2,1.3-3.2,1.3c-1.2,0-2.4-0.5-3.2-1.3L310.8-312.4z"/>
		</g>
		<g class="st3">
			<path class="st4" d="M58.6-547.7l-5.7,5.7l12.2,12.2c4.9,4.9,12.9,4.9,17.8,0l5.6-5.6c0.9-0.9,2-1.3,3.3-1.3
				c1.2,0,2.4,0.5,3.2,1.3l12.2,12.2l5.7-5.7l-12.2-12.2c-2.4-2.4-5.5-3.7-8.9-3.7s-6.5,1.3-8.9,3.7l-5.6,5.6
				c-1.8,1.8-4.7,1.8-6.5,0L58.6-547.7z"/>
		</g>
		<path class="st2" d="M554.7-58.8c0-5.4-4.4-9.7-9.7-9.7c-5.4,0-9.7,4.4-9.7,9.7c0,5.4,4.4,9.7,9.7,9.7
			C550.3-49.1,554.7-53.5,554.7-58.8z"/>
		<path class="st2" d="M379.1-430.3c0-5.4-4.4-9.7-9.7-9.7c-5.4,0-9.7,4.4-9.7,9.7c0,5.4,4.4,9.7,9.7,9.7
			C374.7-420.6,379.1-424.9,379.1-430.3z"/>
		<path class="st2" d="M81.3-254.9c0-5.4-4.4-9.7-9.7-9.7s-9.7,4.4-9.7,9.7c0,5.4,4.4,9.7,9.7,9.7S81.3-249.5,81.3-254.9z"/>
		<polygon class="st1" points="1200,-600 600,-600 600,0 1200,0 		"/>
		<polygon class="st2" points="1147.8,-525.8 1113.3,-525.8 1113.3,-491.2 1121.3,-491.2 1121.3,-517.8 1147.8,-517.8 		"/>
		<polygon class="st2" points="942.4,-226.8 966.9,-202.4 991.3,-226.8 985.6,-232.5 966.9,-213.7 948.1,-232.5 		"/>
		<path class="st2" d="M1134.4-144.3l-4.5-6.6c-8.4,5.7-13.4,15.1-13.4,25.2c0,10,4.9,19.4,13.2,25.1l4.5-6.6
			c-6.1-4.2-9.7-11.1-9.7-18.5C1124.5-133.2,1128.2-140.1,1134.4-144.3z"/>
		<polygon class="st2" points="1005.9,-530.2 994,-518.2 1005.9,-506.3 1017.9,-518.2 		"/>
		<polygon class="st2" points="647.7,-455.7 661.8,-431.2 676,-455.7 		"/>
		<path class="st2" d="M786.3-250.6c-1.9,10,1.2,20.2,8.4,27.3c7.1,7.1,17.2,10.2,27.1,8.4l-1.5-7.9c-7.3,1.3-14.7-1-20-6.2
			c-5.3-5.3-7.6-12.8-6.2-20.2L786.3-250.6z"/>
		<polygon class="st2" points="676,-52.3 634.4,-52.3 634.4,-44.3 676,-44.3 		"/>
		<polygon class="st2" points="1125.1,-329.9 1095.7,-300.5 1101.4,-294.9 1130.8,-324.3 		"/>
		<polygon class="st2" points="966.9,-56.3 952.7,-80.8 938.6,-56.3 		"/>
		<g class="st3">
			<path class="st4" d="M713.5-113.9l-5.7,5.7L720-96c4.9,4.9,12.9,4.9,17.8,0l5.6-5.6c1.8-1.8,4.7-1.8,6.5,0l6.1,6.1
				c4.9,4.9,12.9,4.9,17.8,0l5.6-5.6c0.9-0.9,2-1.3,3.2-1.3c1.2,0,2.4,0.5,3.2,1.3L798.1-89l5.7-5.7l-12.2-12.2
				c-2.4-2.4-5.5-3.7-8.9-3.7s-6.5,1.3-8.9,3.7l-5.6,5.6c-1.8,1.8-4.7,1.8-6.5,0l-6.1-6.1c-4.9-4.9-12.9-4.9-17.8,0l-5.6,5.6
				c-0.9,0.9-2,1.3-3.2,1.3c-1.2,0-2.4-0.5-3.2-1.3L713.5-113.9z"/>
		</g>
		<g class="st3">
			<path class="st4" d="M856.2-420.7l-5.7,5.7l12.2,12.2c4.9,4.9,12.9,4.9,17.8,0l5.6-5.6c0.9-0.9,2-1.3,3.3-1.3
				c1.2,0,2.4,0.5,3.2,1.3l12.2,12.2l5.7-5.7l-12.2-12.2c-2.4-2.4-5.5-3.7-8.9-3.7s-6.5,1.3-8.9,3.7l-5.6,5.6
				c-1.8,1.8-4.7,1.8-6.5,0L856.2-420.7z"/>
		</g>
		<path class="st2" d="M765.6-544.1c0-5.4-4.4-9.7-9.7-9.7c-5.4,0-9.7,4.4-9.7,9.7c0,5.4,4.4,9.7,9.7,9.7
			C761.2-534.4,765.6-538.7,765.6-544.1z"/>
		<path class="st2" d="M702.3-276.7c0-5.4-4.4-9.7-9.7-9.7c-5.4,0-9.7,4.4-9.7,9.7c0,5.4,4.4,9.7,9.7,9.7
			C698-266.9,702.3-271.3,702.3-276.7z"/>
	</g>
</pattern>
<pattern  id="SVGID_1_" xlink:href="#New_Pattern_Swatch_2" patternTransform="matrix(1 0 0 1 2 -423.5668)">
</pattern>
<rect x="0" y="0" class="st5" width="1024" height="429"/>
</svg>
