<?xml version="1.0" encoding="utf-8"?>
<!-- Generator: Adobe Illustrator 15.1.0, SVG Export Plug-In . SVG Version: 6.00 Build 0)  -->
<!DOCTYPE svg PUBLIC "-//W3C//DTD SVG 1.1//EN" "http://www.w3.org/Graphics/SVG/1.1/DTD/svg11.dtd">
<svg version="1.1" id="Layer_1" xmlns="http://www.w3.org/2000/svg" xmlns:xlink="http://www.w3.org/1999/xlink" x="0px" y="0px"
	 width="281.5px" height="133.85px" viewBox="0 0 281.5 133.85" enable-background="new 0 0 281.5 133.85" xml:space="preserve">
<g id="Layer_1_1_">
	<g>
		<g>
			<g>
				<g>
					<path fill="#FFFFFF" d="M12.526,16.45v-6.2h27.4v6.2h-10v27.3h-7.4v-27.3H12.526z"/>
				</g>
				<g>
					<path fill="#FFFFFF" d="M48.427,10.35v12.5h0.2c0.8-1.3,1.8-2.5,3.2-3c1.3-0.7,2.7-1,3.8-1c1.8,0,3.2,0.2,4.3,0.7
						c1.2,0.5,2,1.2,2.7,2c0.7,0.8,1.2,1.8,1.3,3.2c0.3,1.2,0.3,2.7,0.3,4.2v14.9h-6.7v-13.8c0-2-0.3-3.5-1-4.5
						c-0.7-1-1.7-1.5-3.3-1.5c-1.8,0-3.2,0.5-4,1.7c-0.8,1-1.2,2.8-1.2,5.4v12.7h-6.7v-33.5H48.427z"/>
				</g>
				<g>
					<path fill="#FFFFFF" d="M75.526,37.85c1,1,2.5,1.5,4.3,1.5c1.3,0,2.5-0.3,3.5-1c1-0.7,1.5-1.3,1.8-2.2h5.9
						c-1,2.8-2.3,5-4.3,6.2c-2,1.2-4.3,1.8-7,1.8c-1.8,0-3.7-0.3-5.2-0.8c-1.5-0.7-2.8-1.5-3.8-2.7c-1-1.2-1.8-2.5-2.5-4
						c-0.5-1.5-0.8-3.3-0.8-5.2c0-1.8,0.3-3.5,0.8-5c0.7-1.5,1.5-2.8,2.5-4c1.2-1.2,2.3-2,3.8-2.7s3.2-1,5-1c2.2,0,3.8,0.5,5.5,1.2
						c1.5,0.8,2.8,1.8,3.8,3.2c1,1.3,1.7,2.8,2.2,4.5c0.5,1.7,0.7,3.5,0.5,5.4h-17.7C74.026,35.35,74.526,36.85,75.526,37.85z
						 M83.026,25.15c-0.8-0.8-2-1.3-3.7-1.3c-1,0-2,0.2-2.7,0.5c-0.7,0.3-1.3,0.8-1.7,1.3c-0.5,0.5-0.7,1.2-0.8,1.7
						c-0.2,0.7-0.3,1.2-0.3,1.7h10.9C84.427,27.35,83.927,26.05,83.026,25.15z"/>
				</g>
				<g>
					<path fill="#FFFFFF" d="M112.327,35.55c0.3,0.8,1,1.3,1.7,1.8c0.7,0.5,1.5,0.8,2.3,1c0.8,0.2,1.8,0.3,2.8,0.3
						c0.7,0,1.3,0,2.2-0.2c0.7-0.2,1.5-0.3,2.2-0.7c0.7-0.3,1.2-0.7,1.7-1.3c0.5-0.5,0.7-1.2,0.7-2c0-0.8-0.3-1.7-0.8-2.2
						s-1.3-1-2.3-1.3c-1-0.3-2-0.7-3.2-1c-1.2-0.3-2.3-0.7-3.7-1c-1.2-0.3-2.5-0.7-3.7-1.2s-2.2-1-3.2-1.7c-1-0.7-1.7-1.7-2.3-2.7
						c-0.5-1-0.8-2.3-0.8-3.8c0-1.7,0.3-3.2,1.2-4.5c0.7-1.3,1.7-2.3,2.8-3.2c1.2-0.8,2.5-1.5,4-1.8c1.5-0.3,3-0.7,4.5-0.7
						c1.7,0,3.3,0.2,5,0.7c1.7,0.3,3,1,4.3,1.8c1.2,0.8,2.2,2,3,3.3c0.7,1.3,1.2,3,1.2,5h-7c0-1-0.3-1.8-0.7-2.5
						c-0.3-0.7-0.8-1.2-1.5-1.5c-0.8-0.5-1.5-0.7-2.3-0.8c-0.8-0.2-1.7-0.2-2.5-0.2c-0.7,0-1.2,0-1.8,0.2c-0.7,0.2-1.2,0.3-1.7,0.7
						c-0.5,0.3-0.8,0.7-1.2,1.2c-0.3,0.5-0.5,1-0.5,1.8c0,0.7,0.2,1.2,0.3,1.7c0.2,0.3,0.7,0.8,1.5,1.2c0.7,0.3,1.7,0.7,3,1
						c1.3,0.3,3,0.8,5,1.3c0.7,0.2,1.5,0.3,2.7,0.7c1.2,0.3,2.2,0.8,3.3,1.5c1.2,0.7,2,1.7,2.8,2.8c0.8,1.2,1.2,2.7,1.2,4.7
						c0,1.5-0.3,3-0.8,4.2c-0.7,1.3-1.5,2.5-2.7,3.3c-1.2,1-2.7,1.7-4.3,2.2c-1.7,0.5-3.7,0.8-6,0.8c-1.8,0-3.7-0.2-5.3-0.7
						c-1.7-0.5-3.3-1.2-4.5-2.2c-1.3-1-2.3-2.2-3.2-3.7c-0.8-1.5-1.2-3.3-1.2-5.3h7C111.626,33.75,111.827,34.75,112.327,35.55z"/>
				</g>
				<g>
					<path fill="#FFFFFF" d="M142.227,37.85c1,1,2.5,1.5,4.3,1.5c1.3,0,2.5-0.3,3.5-1c1-0.7,1.5-1.3,1.8-2.2h5.9
						c-1,2.8-2.3,5-4.3,6.2c-2,1.2-4.3,1.8-7,1.8c-1.8,0-3.7-0.3-5.2-0.8c-1.5-0.7-2.8-1.5-3.8-2.7c-1-1.2-1.8-2.5-2.5-4
						c-0.5-1.5-0.8-3.3-0.8-5.2c0-1.8,0.3-3.5,0.8-5c0.7-1.5,1.5-2.8,2.5-4c1.2-1.2,2.3-2,3.8-2.7s3.2-1,5-1c2,0,3.8,0.3,5.4,1.2
						c1.5,0.8,2.8,1.8,3.8,3.2c1,1.3,1.7,2.8,2.2,4.5c0.5,1.7,0.699,3.5,0.5,5.4h-17.601C140.727,35.35,141.227,36.85,142.227,37.85
						z M149.826,25.15c-0.8-0.8-2-1.3-3.699-1.3c-1,0-2,0.2-2.7,0.5c-0.7,0.3-1.3,0.8-1.7,1.3c-0.5,0.5-0.7,1.2-0.8,1.7
						c-0.2,0.7-0.3,1.2-0.3,1.7h10.899C151.127,27.35,150.627,26.05,149.826,25.15z"/>
				</g>
				<g>
					<path fill="#FFFFFF" d="M172.526,23.85c-1,0-2,0.2-2.7,0.7c-0.699,0.5-1.3,1.2-1.8,1.8c-0.5,0.8-0.8,1.7-1,2.5
						c-0.2,1-0.3,1.8-0.3,2.7c0,0.8,0.2,1.8,0.3,2.7c0.2,0.8,0.5,1.7,0.8,2.5c0.5,0.7,1,1.3,1.7,1.8s1.7,0.7,2.7,0.7
						c1.7,0,2.8-0.5,3.7-1.3c0.8-0.8,1.3-2,1.7-3.5h6.399c-0.5,3.2-1.7,5.7-3.7,7.4c-2,1.7-4.699,2.5-7.899,2.5
						c-1.8,0-3.5-0.3-5-0.8c-1.5-0.7-2.8-1.5-3.8-2.5c-1-1.2-1.801-2.3-2.5-3.8c-0.7-1.5-0.801-3.2-0.801-5s0.301-3.7,0.801-5.2
						c0.5-1.7,1.3-3,2.3-4.2c1-1.2,2.3-2,3.8-2.7c1.5-0.7,3.3-1,5.2-1c1.5,0,2.8,0.2,4.2,0.5c1.3,0.3,2.5,1,3.5,1.7
						c1,0.8,1.8,1.7,2.5,2.8c0.699,1.1,1,2.5,1.199,4h-6.5C176.927,25.35,175.427,23.85,172.526,23.85z"/>
				</g>
				<g>
					<path fill="#FFFFFF" d="M192.927,19.45v4.5h0.2c0.3-0.7,0.699-1.5,1.3-2c0.5-0.7,1.2-1.2,1.8-1.7c0.7-0.5,1.3-0.8,2.2-1
						c0.8-0.2,1.7-0.3,2.5-0.3c0.5,0,1,0,1.5,0.2v6.2c-0.3,0-0.7-0.2-1.2-0.2s-0.8,0-1.3,0c-1.2,0-2.2,0.2-3,0.7
						c-0.8,0.3-1.5,1-2,1.7c-0.5,0.7-0.8,1.5-1.2,2.5c-0.2,1-0.3,2-0.3,3v10.9h-6.7v-24.5H192.927z"/>
				</g>
				<g>
					<path fill="#FFFFFF" d="M210.026,37.85c1,1,2.5,1.5,4.3,1.5c1.301,0,2.5-0.3,3.5-1c1-0.7,1.5-1.3,1.801-2.2h5.899
						c-1,2.8-2.3,5-4.3,6.2c-2,1.2-4.3,1.8-7,1.8c-1.8,0-3.7-0.3-5.2-0.8c-1.5-0.7-2.8-1.5-3.8-2.7c-1-1.2-1.8-2.5-2.5-4
						c-0.5-1.5-0.8-3.3-0.8-5.2c0-1.8,0.3-3.5,0.8-5c0.7-1.5,1.5-2.8,2.5-4c1.2-1.2,2.3-2,3.8-2.7s3.2-1,5-1c2,0,3.8,0.3,5.4,1.2
						c1.5,0.8,2.8,1.8,3.8,3.2c1,1.3,1.7,2.8,2.2,4.5c0.5,1.7,0.7,3.5,0.5,5.4h-17.4C208.326,35.35,209.026,36.85,210.026,37.85z
						 M217.326,25.15c-0.8-0.8-2-1.3-3.699-1.3c-1,0-2,0.2-2.7,0.5c-0.7,0.3-1.3,0.8-1.7,1.3c-0.5,0.5-0.7,1.2-0.8,1.7
						c-0.2,0.7-0.3,1.2-0.3,1.7h10.899C218.826,27.35,218.227,26.05,217.326,25.15z"/>
				</g>
				<g>
					<path fill="#FFFFFF" d="M241.727,19.45v4.5h-4.9v12c0,1.2,0.2,1.8,0.5,2.2c0.301,0.3,1.2,0.5,2.2,0.5c0.3,0,0.7,0,1,0
						s0.7,0,1-0.2v5.2c-0.5,0.2-1.2,0.2-1.8,0.2c-0.7,0-1.3,0-2,0c-1,0-2,0-2.8-0.2c-0.8-0.2-1.7-0.3-2.5-0.8
						c-0.7-0.3-1.3-1-1.7-1.7c-0.3-0.7-0.7-1.7-0.7-3v-14.1h-4v-4.5h4v-7.2h6.7v7.2h5V19.45z"/>
				</g>
				<g>
					<path fill="#FFFFFF" d="M22.526,48.75v12.9h13.5v-12.9h7.2v33.5h-7.4v-14.4h-13.3v14.4h-7.4v-33.5H22.526z"/>
				</g>
				<g>
					<path fill="#FFFFFF" d="M48.827,61.65c0.7-1,1.5-1.8,2.7-2.5c1-0.7,2.2-1,3.5-1.3c1.3-0.301,2.7-0.301,4-0.301
						c1.2,0,2.5,0.201,3.7,0.301c1.2,0.199,2.3,0.5,3.3,1s1.8,1.199,2.5,2c0.7,0.8,1,2,1,3.5v12.5c0,1.199,0,2.199,0.2,3.199
						s0.3,1.701,0.7,2.201h-6.7c-0.2-0.301-0.2-0.801-0.3-1.201c0-0.299-0.2-0.799-0.2-1.199c-1,1.199-2.3,1.8-3.7,2.3
						c-1.5,0.5-2.8,0.7-4.3,0.7c-1.2,0-2.2-0.2-3.2-0.5c-1-0.301-1.8-0.7-2.7-1.301c-0.7-0.699-1.3-1.299-1.7-2.199
						c-0.5-0.801-0.7-2-0.7-3.2c0-1.3,0.2-2.5,0.7-3.3c0.5-0.801,1.2-1.7,1.8-2.2c0.8-0.5,1.7-1,2.7-1.2c1-0.3,2-0.5,3-0.699
						c1-0.201,2-0.301,3-0.301c1-0.199,1.8-0.199,2.5-0.5c0.7-0.199,1.3-0.5,1.8-0.8s0.7-0.8,0.7-1.5s-0.2-1.3-0.3-1.7
						c-0.2-0.5-0.5-0.699-1-1c-0.3-0.199-0.8-0.3-1.3-0.5c-0.5,0-1-0.199-1.7-0.199c-1.3,0-2.3,0.299-3,0.799
						c-0.7,0.5-1.2,1.5-1.3,2.801h-6.7C47.827,63.95,48.126,62.65,48.827,61.65z M62.026,71.049c-0.5,0.201-0.8,0.301-1.3,0.301
						c-0.5,0.199-1,0.199-1.5,0.199s-1,0.201-1.7,0.201c-0.5,0.199-1,0.199-1.5,0.299c-0.5,0.201-0.8,0.301-1.3,0.701
						c-0.3,0.299-0.7,0.699-0.8,1c-0.2,0.299-0.3,1-0.3,1.5c0,0.699,0.2,1.199,0.3,1.5c0.2,0.299,0.5,0.699,0.8,1
						c0.3,0.199,0.8,0.299,1.3,0.5c0.5,0.199,1,0.199,1.5,0.199c1.3,0,2.3-0.199,3-0.699c0.7-0.5,1.2-1,1.7-1.5
						c0.3-0.701,0.5-1.201,0.7-1.801c0-0.699,0.2-1.199,0.2-1.5v-2.5C62.626,70.65,62.327,70.85,62.026,71.049z"/>
				</g>
				<g>
					<path fill="#FFFFFF" d="M79.927,57.95v3.301h0.2c0.8-1.301,2-2.5,3.3-3c1.3-0.701,2.7-1,4.2-1c1.8,0,3.2,0.199,4.3,0.699
						c1.2,0.5,2,1.2,2.7,2c0.7,0.801,1.2,1.801,1.3,3.2c0.3,1.2,0.3,2.7,0.3,4.2v14.9h-6.7V68.45c0-2-0.3-3.5-1-4.5
						c-0.7-1-1.7-1.5-3.3-1.5c-1.8,0-3.2,0.5-4,1.7c-0.8,1-1.2,2.8-1.2,5.399V82.25h-6.7V57.95H79.927z"/>
				</g>
				<g>
					<path fill="#FFFFFF" d="M117.327,79.25c-0.8,1.299-1.8,2.199-3,2.799c-1.3,0.5-2.7,0.801-4.3,0.801c-1.8,0-3.3-0.301-4.9-1
						c-1.5-0.7-2.5-1.7-3.3-2.801c-0.8-1.199-1.5-2.5-2-4.199c-0.5-1.5-0.7-3.2-0.7-4.801c0-1.699,0.2-3.199,0.7-4.699
						s1.2-2.801,2-4c0.8-1.2,2-2,3.3-2.801c1.3-0.699,2.8-1,4.7-1c1.5,0,2.8,0.301,4,0.801c1.3,0.699,2.3,1.5,3,2.699h0.2V48.75h6.7
						v33.5h-6.4V79.25L117.327,79.25z M117.227,67.15c-0.2-1-0.5-1.7-1-2.5s-1-1.3-1.8-1.7c-0.7-0.5-1.7-0.699-2.7-0.699
						c-1.2,0-2,0.199-2.8,0.699c-0.7,0.5-1.3,1-1.8,1.7s-0.8,1.5-1,2.5c-0.2,1-0.3,1.8-0.3,2.8s0.2,1.801,0.3,2.801
						c0.2,1,0.5,1.799,1,2.5c0.5,0.699,1.2,1.299,1.8,1.799c0.7,0.5,1.7,0.701,2.7,0.701c1.2,0,2-0.201,2.7-0.701
						c0.7-0.5,1.3-1,1.8-1.699c0.5-0.7,0.7-1.5,1-2.5c0.2-1,0.3-1.801,0.3-2.801C117.327,69.049,117.327,67.95,117.227,67.15z"/>
				</g>
				<g>
					<path fill="#FFFFFF" d="M133.227,76.15c0.3,0.5,0.7,1,1.2,1.3c0.5,0.301,1,0.5,1.7,0.7c0.7,0.2,1.2,0.2,1.8,0.2
						c0.5,0,1,0,1.5-0.2s1-0.3,1.3-0.5c0.5-0.2,0.8-0.5,1-1c0.3-0.3,0.5-0.8,0.5-1.5c0-1-0.7-1.7-2-2.2s-3.2-1-5.5-1.5
						c-1-0.199-1.8-0.5-2.8-0.8s-1.7-0.7-2.5-1.2c-0.7-0.5-1.3-1.199-1.7-1.8c-0.5-0.7-0.7-1.7-0.7-2.7c0-1.5,0.3-2.8,0.8-3.8
						c0.7-1,1.3-1.8,2.3-2.3s2.2-1,3.3-1.2c1.2-0.2,2.5-0.3,3.8-0.3s2.5,0.199,3.8,0.3c1.2,0.2,2.3,0.7,3.3,1.3
						c1,0.7,1.801,1.301,2.301,2.301c0.699,1,1,2.199,1.199,3.699h-6.199c-0.2-1.3-0.5-2.199-1.5-2.699
						c-0.801-0.5-1.801-0.701-3-0.701c-0.3,0-0.8,0-1.2,0c-0.5,0-0.8,0.201-1.2,0.301c-0.3,0.199-0.7,0.3-0.8,0.699
						c-0.2,0.301-0.3,0.701-0.3,1.201c0,0.699,0.2,1,0.7,1.5c0.5,0.299,1,0.699,1.7,0.799c0.7,0.201,1.5,0.5,2.3,0.701
						c0.801,0.199,1.801,0.299,2.801,0.699c1,0.2,1.8,0.5,2.8,0.801c1,0.299,1.7,0.699,2.5,1.199c0.7,0.5,1.3,1.2,1.7,1.801
						c0.5,0.799,0.699,1.699,0.699,2.799c0,1.701-0.3,2.801-1,4c-0.699,1-1.5,2-2.5,2.701c-1,0.699-2.199,1.199-3.5,1.299
						c-1.3,0.301-2.699,0.301-4,0.301c-1.3,0-2.8-0.2-4.2-0.5c-1.3-0.301-2.5-0.7-3.5-1.301c-1-0.699-1.8-1.5-2.5-2.699
						c-1-0.7-1.3-2-1.3-3.7h6.4C132.727,75.049,132.927,75.65,133.227,76.15z"/>
				</g>
				<g>
					<path fill="#FFFFFF" d="M158.326,48.75v12.5h0.2c0.8-1.301,1.8-2.5,3.2-3c1.3-0.701,2.7-1,3.8-1c1.8,0,3.2,0.199,4.3,0.699
						c1.101,0.5,2,1.2,2.7,2c0.7,0.801,1.2,1.801,1.3,3.2c0.301,1.2,0.301,2.7,0.301,4.2v14.9h-6.7V68.45c0-2-0.3-3.5-1-4.5
						s-1.7-1.5-3.3-1.5c-1.801,0-3.2,0.5-4,1.7c-0.801,1-1.2,2.8-1.2,5.399V82.25h-6.7v-33.5H158.326z"/>
				</g>
				<g>
					<path fill="#FFFFFF" d="M179.227,61.65c0.7-1,1.5-1.8,2.7-2.5c1-0.7,2.2-1,3.5-1.3c1.3-0.301,2.7-0.301,4-0.301
						c1.2,0,2.5,0.201,3.7,0.301c1.199,0.199,2.3,0.5,3.3,1s1.8,1.199,2.5,2c0.7,0.8,1,2,1,3.5v12.5c0,1.199,0,2.199,0.2,3.199
						c0.199,1,0.3,1.701,0.699,2.201h-6.699c-0.2-0.301-0.2-0.801-0.301-1.201c0-0.299-0.199-0.799-0.199-1.199
						c-1,1.199-2.301,1.8-3.7,2.3c-1.5,0.5-2.8,0.7-4.3,0.7c-1.2,0-2.2-0.2-3.2-0.5c-1-0.301-1.8-0.7-2.7-1.301
						c-0.7-0.699-1.3-1.299-1.7-2.199c-0.5-0.801-0.7-2-0.7-3.2c0-1.3,0.2-2.5,0.7-3.3c0.5-0.801,1.2-1.7,1.8-2.2
						c0.801-0.5,1.7-1,2.7-1.2c1-0.3,2-0.5,3-0.699c1-0.201,2-0.301,3-0.301c1-0.199,1.8-0.199,2.5-0.5c0.7-0.199,1.3-0.5,1.8-0.8
						s0.7-0.8,0.7-1.5s-0.2-1.3-0.3-1.7c-0.2-0.5-0.5-0.699-1-1c-0.3-0.199-0.8-0.3-1.3-0.5c-0.5,0-1-0.199-1.7-0.199
						c-1.3,0-2.3,0.299-3,0.799s-1.2,1.5-1.3,2.801h-6.7C178.026,63.95,178.427,62.65,179.227,61.65z M192.227,71.049
						c-0.5,0.201-0.8,0.301-1.3,0.301c-0.5,0.199-1,0.199-1.5,0.199s-1,0.201-1.7,0.201c-0.5,0.199-1,0.199-1.5,0.299
						c-0.5,0.201-0.8,0.301-1.3,0.701c-0.3,0.299-0.7,0.699-0.8,1c-0.2,0.299-0.301,1-0.301,1.5c0,0.699,0.2,1.199,0.301,1.5
						c0.199,0.299,0.5,0.699,0.8,1c0.3,0.199,0.8,0.299,1.3,0.5c0.5,0.199,1,0.199,1.5,0.199c1.3,0,2.3-0.199,3-0.699s1.2-1,1.7-1.5
						c0.3-0.701,0.5-1.201,0.7-1.801c0-0.699,0.199-1.199,0.199-1.5v-2.5C193.127,70.65,192.627,70.85,192.227,71.049z"/>
				</g>
				<g>
					<path fill="#FFFFFF" d="M211.127,48.75v17.9l8.399-8.7h7.9l-9.2,8.9l10.2,15.4h-8l-6.7-10.9l-2.5,2.5v8.4h-6.7v-33.5H211.127z"
						/>
				</g>
				<g>
					<path fill="#FFFFFF" d="M236.727,76.35c1,1,2.5,1.5,4.3,1.5c1.3,0,2.5-0.301,3.5-1c1-0.7,1.5-1.301,1.8-2.2h5.9
						c-1,2.8-2.3,5-4.3,6.2c-2,1.199-4.3,1.8-7,1.8c-1.8,0-3.7-0.3-5.2-0.8c-1.5-0.7-2.8-1.5-3.8-2.7s-1.8-2.5-2.5-4
						c-0.5-1.5-0.8-3.3-0.8-5.2c0-1.8,0.3-3.5,0.8-5c0.7-1.5,1.5-2.8,2.5-4c1.2-1.199,2.3-2,3.8-2.699c1.5-0.701,3.2-1,5-1
						c2,0,3.8,0.299,5.4,1.199c1.5,0.801,2.8,1.801,3.8,3.2c1,1.3,1.7,2.8,2.2,4.5s0.699,3.5,0.5,5.399h-17.4
						C235.227,73.85,235.727,75.35,236.727,76.35z M244.326,63.65c-0.8-0.8-2-1.3-3.699-1.3c-1,0-2,0.199-2.7,0.5
						c-0.7,0.3-1.3,0.8-1.7,1.3c-0.5,0.5-0.7,1.2-0.8,1.7c-0.2,0.699-0.3,1.199-0.3,1.699h10.899
						C245.627,65.85,245.127,64.45,244.326,63.65z"/>
				</g>
			</g>
		</g>
		<g>
			<g>
				<g>
					<path fill="#FFFFFF" d="M255.526,74.549c0.3-0.699,0.8-1.299,1.3-1.799s1.2-0.801,2-1.201c0.7-0.299,1.5-0.299,2.301-0.299
						c0.8,0,1.5,0.199,2.3,0.299c0.7,0.301,1.3,0.701,2,1.201c0.5,0.5,1,1.199,1.3,1.799c0.3,0.701,0.5,1.5,0.5,2.301
						c0,0.8-0.2,1.699-0.5,2.5c-0.3,0.699-0.8,1.3-1.3,1.8s-1.2,0.8-2,1.2c-0.7,0.3-1.5,0.3-2.3,0.3c-0.801,0-1.5-0.2-2.301-0.3
						c-0.699-0.301-1.3-0.7-2-1.2c-0.5-0.5-1-1.2-1.3-1.8c-0.3-0.7-0.5-1.5-0.5-2.5C255.026,76.15,255.127,75.35,255.526,74.549z
						 M256.826,78.85c0.2,0.5,0.5,1,1,1.5c0.301,0.3,0.801,0.699,1.301,1c0.5,0.199,1.199,0.3,1.699,0.3c0.7,0,1.2-0.2,1.7-0.3
						s1-0.5,1.3-1c0.301-0.301,0.7-0.801,1-1.5c0.2-0.5,0.301-1.2,0.301-1.801c0-0.699-0.2-1.299-0.301-1.799
						c-0.199-0.5-0.5-1-1-1.5c-0.3-0.301-0.8-0.701-1.3-1c-0.5-0.201-1.2-0.301-1.7-0.301c-0.699,0-1.199,0.2-1.699,0.301
						c-0.5,0.199-1,0.5-1.301,1c-0.3,0.299-0.699,0.799-1,1.5c-0.199,0.5-0.3,1.199-0.3,1.799
						C256.526,77.65,256.627,78.35,256.826,78.85z M261.127,73.65c0.8,0,1.5,0.2,1.8,0.5c0.5,0.3,0.7,0.8,0.7,1.5
						c0,0.3,0,0.5-0.2,0.8c-0.2,0.2-0.2,0.301-0.3,0.5c-0.2,0.2-0.301,0.2-0.5,0.301c-0.2,0.199-0.5,0.199-0.7,0.199l1.8,2.801h-1.5
						l-1.7-2.801h-0.8v2.801h-1.3v-6.5h2.7V73.65z M261.127,76.549c0.3,0,0.699,0,1-0.199c0.3-0.2,0.3-0.301,0.3-0.801
						c0-0.199,0-0.299-0.2-0.5c-0.2-0.199-0.2-0.199-0.3-0.199c-0.101,0-0.3-0.2-0.5-0.2s-0.3,0-0.5,0h-1.2v1.7h1.3v0.199H261.127z"
						/>
				</g>
			</g>
		</g>
	</g>
</g>
<g>
	<path fill="#FFFFFF" d="M15.974,108.182h1.871v1.541h0.044c0.616-1.255,2.068-1.805,3.63-1.805c3.499,0,5.237,2.772,5.237,5.984
		c0,3.213-1.716,5.919-5.193,5.919c-1.166,0-2.838-0.439-3.674-1.782h-0.044v5.875h-1.871V108.182z M21.255,109.569
		c-2.508,0-3.477,2.156-3.477,4.29c0,2.245,1.012,4.313,3.587,4.313c2.552,0,3.41-2.179,3.41-4.401
		C24.775,111.637,23.675,109.569,21.255,109.569z"/>
	<path fill="#FFFFFF" d="M28.888,108.182h1.76v2.398h0.044c0.902-1.826,2.156-2.729,4.181-2.662v1.98
		c-3.015,0-4.115,1.716-4.115,4.599v5.061h-1.87V108.182z"/>
	<path fill="#FFFFFF" d="M45.983,115.95c-0.506,2.508-2.311,3.872-4.863,3.872c-3.631,0-5.347-2.508-5.457-5.984
		c0-3.41,2.245-5.919,5.347-5.919c4.027,0,5.259,3.763,5.149,6.513h-8.515c-0.066,1.98,1.056,3.741,3.542,3.741
		c1.54,0,2.618-0.749,2.948-2.223H45.983z M44.179,112.781c-0.088-1.782-1.43-3.212-3.278-3.212c-1.958,0-3.125,1.474-3.256,3.212
		H44.179z"/>
	<path fill="#FFFFFF" d="M49.238,115.971c0.066,1.673,1.519,2.201,3.059,2.201c1.166,0,2.75-0.265,2.75-1.694
		c0-1.452-1.849-1.694-3.719-2.112c-1.848-0.418-3.718-1.034-3.718-3.213c0-2.288,2.266-3.234,4.247-3.234
		c2.508,0,4.511,0.792,4.665,3.564h-1.87c-0.132-1.452-1.408-1.914-2.641-1.914c-1.122,0-2.42,0.308-2.42,1.452
		c0,1.342,1.98,1.563,3.719,1.98c1.87,0.418,3.718,1.034,3.718,3.234c0,2.706-2.53,3.586-4.84,3.586
		c-2.553,0-4.709-1.034-4.819-3.851H49.238z"/>
	<path fill="#FFFFFF" d="M68.797,115.95c-0.506,2.508-2.311,3.872-4.863,3.872c-3.631,0-5.347-2.508-5.457-5.984
		c0-3.41,2.245-5.919,5.347-5.919c4.027,0,5.259,3.763,5.149,6.513h-8.515c-0.066,1.98,1.056,3.741,3.542,3.741
		c1.54,0,2.618-0.749,2.948-2.223H68.797z M66.993,112.781c-0.088-1.782-1.43-3.212-3.278-3.212c-1.958,0-3.125,1.474-3.256,3.212
		H66.993z"/>
	<path fill="#FFFFFF" d="M70.907,108.182h1.76v1.805h0.044c0.792-1.408,2.068-2.068,3.697-2.068c2.992,0,3.917,1.716,3.917,4.158
		v7.481h-1.871v-7.701c0-1.386-0.88-2.288-2.31-2.288c-2.267,0-3.367,1.518-3.367,3.564v6.425h-1.87V108.182z"/>
	<path fill="#FFFFFF" d="M85.735,108.182h2.267v1.65h-2.267v7.063c0,0.857,0.242,1.012,1.408,1.012h0.858v1.65h-1.43
		c-1.937,0-2.707-0.396-2.707-2.486v-7.239h-1.936v-1.65h1.936v-3.41h1.87V108.182z"/>
	<path fill="#FFFFFF" d="M91.213,115.971c0.066,1.673,1.519,2.201,3.059,2.201c1.166,0,2.75-0.265,2.75-1.694
		c0-1.452-1.848-1.694-3.719-2.112c-1.848-0.418-3.718-1.034-3.718-3.213c0-2.288,2.266-3.234,4.247-3.234
		c2.508,0,4.51,0.792,4.665,3.564h-1.87c-0.132-1.452-1.408-1.914-2.641-1.914c-1.122,0-2.42,0.308-2.42,1.452
		c0,1.342,1.98,1.563,3.719,1.98c1.87,0.418,3.718,1.034,3.718,3.234c0,2.706-2.53,3.586-4.84,3.586
		c-2.553,0-4.709-1.034-4.819-3.851H91.213z"/>
</g>
</svg>
