<?xml version="1.0" encoding="utf-8"?>
<!-- Generator: Adobe Illustrator 15.1.0, SVG Export Plug-In . SVG Version: 6.00 Build 0)  -->
<!DOCTYPE svg PUBLIC "-//W3C//DTD SVG 1.1//EN" "http://www.w3.org/Graphics/SVG/1.1/DTD/svg11.dtd">
<svg version="1.1" id="Layer_1" xmlns="http://www.w3.org/2000/svg" xmlns:xlink="http://www.w3.org/1999/xlink" x="0px" y="0px"
	 width="188.424px" height="478.454px" viewBox="0 0 188.424 478.454" enable-background="new 0 0 188.424 478.454"
	 xml:space="preserve">
<polygon fill="#EF4444" points="83.643,232.052 102.448,232.052 93.045,215.767 "/>
<path fill="#EF4444" d="M82.049,39.285l-0.967,5.228c6.561,1.213,13.288-0.876,18-5.587c4.759-4.76,6.837-11.551,5.556-18.167
	l-5.219,1.01c0.944,4.881-0.587,9.89-4.096,13.398C91.85,38.641,86.888,40.18,82.049,39.285z"/>
<rect x="32.956" y="112.776" fill="#EF4444" width="27.623" height="5.315"/>
<circle fill="#EF4444" cx="27.076" cy="5.96" r="6.467"/>
<rect x="8.665" y="180.803" transform="matrix(-0.7071 0.7071 -0.7071 -0.7071 156.2213 308.1484)" fill="#EF4444" width="11.252" height="11.252"/>
<path fill="#EF4444" d="M180.771,427.323l0.967-5.228c-6.561-1.214-13.289,0.875-18,5.587c-4.76,4.759-6.837,11.551-5.556,18.167
	l5.219-1.011c-0.944-4.88,0.587-9.889,4.096-13.397C170.97,427.968,175.932,426.428,180.771,427.323z"/>
<path fill="#EF4444" d="M44.315,393.228c0.82,0,1.588,0.314,2.16,0.887l3.734,3.734c3.263,3.263,8.574,3.264,11.837,0l4.041-4.041
	c1.19-1.19,3.128-1.191,4.319,0l3.734,3.734c1.576,1.576,3.679,2.444,5.918,2.444c2.24,0,4.343-0.868,5.918-2.444l8.081-8.08
	l-3.759-3.759l-8.081,8.08c-0.571,0.572-1.339,0.888-2.159,0.888s-1.587-0.315-2.159-0.888l-3.734-3.734
	c-3.265-3.263-8.574-3.263-11.837,0l-4.041,4.041c-1.191,1.19-3.128,1.191-4.319,0l-3.735-3.734c-3.262-3.264-8.573-3.264-11.836,0
	l-8.08,8.08l3.759,3.759l8.08-8.08C42.729,393.542,43.495,393.228,44.315,393.228z"/>
<polygon fill="#EF4444" points="41.091,322.406 64.042,322.406 64.042,299.455 58.726,299.455 58.726,317.09 41.091,317.09 "/>
</svg>
