<?xml version="1.0" encoding="utf-8"?>
<!-- Generator: Adobe Illustrator 15.1.0, SVG Export Plug-In . SVG Version: 6.00 Build 0)  -->
<!DOCTYPE svg PUBLIC "-//W3C//DTD SVG 1.1//EN" "http://www.w3.org/Graphics/SVG/1.1/DTD/svg11.dtd">
<svg version="1.1" id="Layer_1" xmlns="http://www.w3.org/2000/svg" xmlns:xlink="http://www.w3.org/1999/xlink" x="0px" y="0px"
	 width="188.424px" height="478.454px" viewBox="0 0 188.424 478.454" enable-background="new 0 0 188.424 478.454"
	 xml:space="preserve">
<path fill="#EF4444" d="M142.671,25.907l-0.967,5.228c6.561,1.214,13.288-0.875,18-5.587c4.759-4.759,6.836-11.551,5.555-18.167
	l-5.219,1.011c0.944,4.88-0.586,9.889-4.095,13.397C152.471,25.263,147.509,26.802,142.671,25.907z"/>
<polygon fill="#EF4444" points="43.757,0 24.951,0 34.354,16.285 "/>
<path fill="#EF4444" d="M113.813,104.665c-0.82,0-1.588-0.315-2.16-0.888l-3.734-3.734c-3.263-3.263-8.574-3.264-11.837,0
	l-4.04,4.041c-1.191,1.19-3.128,1.191-4.32,0l-3.734-3.734c-1.576-1.576-3.679-2.444-5.918-2.444c-2.24,0-4.342,0.868-5.918,2.444
	l-8.081,8.08l3.759,3.759l8.081-8.08c0.571-0.572,1.339-0.888,2.159-0.888s1.587,0.315,2.159,0.888l3.734,3.734
	c3.265,3.263,8.574,3.263,11.837,0l4.041-4.041c1.191-1.189,3.129-1.191,4.32,0l3.734,3.734c3.262,3.264,8.573,3.264,11.836,0
	l8.08-8.08l-3.758-3.759l-8.081,8.08C115.4,104.35,114.634,104.665,113.813,104.665z"/>
<polygon fill="#EF4444" points="165.143,164.011 142.191,164.011 142.191,186.961 147.508,186.961 147.508,169.326 165.143,169.326 
	"/>
<polygon fill="#EF4444" points="109.032,250.54 90.228,250.54 99.631,266.825 "/>
<path fill="#EF4444" d="M125.495,425l0.967-5.228c-6.561-1.213-13.289,0.876-18.001,5.587c-4.759,4.76-6.836,11.551-5.556,18.167
	l5.219-1.01c-0.943-4.881,0.587-9.889,4.096-13.397C115.694,425.645,120.656,424.105,125.495,425z"/>
<rect x="82.129" y="338.224" fill="#EF4444" width="27.623" height="5.315"/>
<circle fill="#EF4444" cx="173.191" cy="283.195" r="6.468"/>
<polygon fill="#EF4444" points="0,433.662 22.951,433.662 22.951,410.711 17.635,410.711 17.635,428.347 0,428.347 "/>
<rect x="174.841" y="427.953" transform="matrix(0.7071 -0.7071 0.7071 0.7071 -253.7292 254.6017)" fill="#EF4444" width="11.252" height="11.252"/>
</svg>
